<?xml version="1.0" standalone="no"?>
<!DOCTYPE svg PUBLIC "-//W3C//DTD SVG 20010904//EN"
 "http://www.w3.org/TR/2001/REC-SVG-20010904/DTD/svg10.dtd">
<svg version="1.0" xmlns="http://www.w3.org/2000/svg"
 width="134.000000pt" height="134.000000pt" viewBox="0 0 134.000000 134.000000"
 preserveAspectRatio="xMidYMid meet">

<g transform="translate(0.000000,134.000000) scale(0.100000,-0.100000)"
fill="#000000" stroke="none">
<path d="M264 1208 c3 -24 5 -78 5 -120 l1 -78 263 0 262 0 0 -450 0 -450 75
0 75 0 113 113 112 112 0 458 0 457 -456 0 -456 0 6 -42z"/>
<path d="M130 457 l0 -122 113 -113 112 -112 183 0 182 0 0 100 c0 55 1 103 3
108 1 4 -45 9 -103 12 -74 4 -105 9 -106 18 -1 6 -2 62 -3 122 l-1 110 -190 0
-190 0 0 -123z"/>
</g>
</svg>
